<?xml version="1.0" encoding="utf-8"?>
<svg id="marker" data-name="marker" width="20" height="48" viewBox="0 0 20 48" xmlns="http://www.w3.org/2000/svg">
  <g id="mapbox-marker-icon">
    <g id="icon">
      <ellipse id="shadow" cx="10" cy="27" rx="9" ry="5" opacity="0.3" style="isolation: isolate" fill="#c4c4c4"/>
      <g id="mask" opacity="0.3">
        <g id="group">
          <path id="shadow-2" data-name="shadow" d="M10,32c5,0,9-2.2,9-5s-4-5-9-5-9,2.2-9,5S5,32,10,32Z" fill-rule="evenodd" fill="#bfbfbf"/>
        </g>
      </g>
      <path id="color" stroke="#a4a62d" stroke-width="0.5" d="M19.25,10.4a13.0663,13.0663,0,0,1-1.4607,5.2235,41.5281,41.5281,0,0,1-3.2459,5.5483c-1.1829,1.7369-2.3662,3.2784-3.2541,4.3859-.4438.5536-.8135.9984-1.0721,1.3046-.0844.1-.157.1852-.2164.2545-.06-.07-.1325-.1564-.2173-.2578-.2587-.3088-.6284-.7571-1.0723-1.3147-.8879-1.1154-2.0714-2.6664-3.2543-4.41a42.2677,42.2677,0,0,1-3.2463-5.5535A12.978,12.978,0,0,1,.75,10.4,9.4659,9.4659,0,0,1,10,.75,9.4659,9.4659,0,0,1,19.25,10.4Z" fill="#d9d838"/>
      <rect x="4.138" y="12" width="11.917" height="2.152" style="stroke: rgb(0, 0, 0);" transform="matrix(0.999983, -0.005911, 0.005911, 0.999983, -0.077114, 0.059907)"/>
    </g>
  </g>
  <rect width="20" height="48" fill="none"/>
  <ellipse style="stroke: rgb(0, 0, 0);" cx="10.262" cy="11.132" rx="3.89" ry="3.021"/>
</svg>